<!-- Generated by IcoMoon.io -->
<svg version="1.1" xmlns="http://www.w3.org/2000/svg" width="1024" height="1024" viewBox="0 0 1024 1024">
<title></title>
<g id="icomoon-ignore">
</g>
<path d="M512 0c-283.307 0-512 228.693-512 512s228.693 512 512 512c283.307 0 512-228.693 512-512s-228.693-512-512-512zM740.693 535.893l-218.453 218.453c-13.653 13.653-34.133 13.653-47.787 0s-13.653-34.133 0-47.787l160.427-160.427h-361.813c-20.48 0-34.133-13.653-34.133-34.133s13.653-34.133 34.133-34.133h361.813l-160.427-160.427c-13.653-13.653-13.653-34.133 0-47.787s34.133-13.653 47.787 0l218.453 218.453c13.653 13.653 13.653 34.133 0 47.787z"></path>
</svg>
