<!-- Generated by IcoMoon.io -->
<svg version="1.1" xmlns="http://www.w3.org/2000/svg" width="1024" height="1024" viewBox="0 0 1024 1024">
<title></title>
<g id="icomoon-ignore">
</g>
<path d="M512 0c-283.307 0-512 228.693-512 512s228.693 512 512 512c283.307 0 512-228.693 512-512s-228.693-512-512-512zM727.040 638.293c-6.827 6.827-17.067 10.24-23.893 10.24s-17.067-3.413-23.893-10.24l-167.253-167.253-167.253 167.253c-13.653 13.653-34.133 13.653-47.787 0s-13.653-34.133 0-47.787l215.040-215.040 215.040 215.040c13.653 13.653 13.653 34.133 0 47.787z"></path>
</svg>
