<!-- Generated by IcoMoon.io -->
<svg version="1.1" xmlns="http://www.w3.org/2000/svg" width="945" height="1024" viewBox="0 0 945 1024">
<title></title>
<g id="icomoon-ignore">
</g>
<path fill="#000" d="M921.6 941.292l-393.846-417.477 393.846-417.477c15.754-15.754 15.754-39.385 0-55.138s-39.385-15.754-55.138 0l-393.846 413.538-389.908-413.538c-15.754-15.754-39.385-15.754-55.138 0s-15.754 39.385 0 55.138l393.846 417.477-393.846 417.477c-15.754 15.754-15.754 39.385 0 55.138 7.877 7.877 15.754 11.815 27.569 11.815s19.692-3.938 27.569-11.815l389.908-417.477 389.908 413.538c7.877 7.877 19.692 11.815 27.569 11.815s19.692-3.938 27.569-11.815 19.692-35.446 3.938-51.2z"></path>
</svg>
